<svg width="512" height="495" viewBox="0 0 512 495" fill="none" xmlns="http://www.w3.org/2000/svg">
<ellipse cx="256" cy="247.172" rx="256" ry="247.172" fill="#C8D5B9"/>
<path d="M500.693 320.025C502.936 314.841 504.102 309.517 504.102 304.086C504.102 251.099 393.023 208.145 256 208.145C118.977 208.145 7.89844 251.099 7.89844 304.086C7.89844 309.487 9.05078 314.784 11.2695 319.941C43.4453 420.936 140.842 494.344 255.996 494.344C371.117 494.344 468.49 420.976 500.693 320.025Z" fill="#111E2D"/>
<path d="M424.489 233.661C380.243 217.824 321.045 208.145 256 208.145C118.977 208.145 7.89844 251.099 7.89844 304.086C7.89844 350.936 94.7351 389.943 209.564 398.351L424.489 233.661Z" fill="#FAFAFA"/>
<path d="M200.059 182.952C190.162 193.596 189.405 214.631 200.059 225.021C199.902 225.493 199.728 225.963 199.555 226.431L199.531 226.501C198.321 229.787 197.167 232.922 201.581 234.905C203.733 235.406 205.025 235.346 207.415 234.399L207.512 234.398C209.377 234.385 210.476 234.377 211.473 233.133C213.711 233.534 216.118 233.818 218.594 233.974L218.576 235.16C218.173 236.157 217.785 236.805 217.212 237.415C216.891 237.755 216.513 238.084 216.039 238.455C214.01 240.736 213.503 245.298 217.815 245.805C218.576 246.565 220.605 247.072 221.873 246.565C223.903 247.579 227.454 247.325 229.229 245.805C232.273 245.805 233.795 242.256 232.273 237.188C231.582 235.986 231.189 235.134 230.773 233.667C234.808 233.184 238.587 232.296 241.657 230.95V234.4C241.151 236.681 242.164 238.708 243.686 240.229C244.195 242.763 245.717 246.058 254.593 244.284C256.878 244.791 259.415 243.777 259.92 242.763C260.955 242.655 262.203 241.75 261.696 239.469C261.272 237.555 259.419 236.177 257.483 235.184C259.032 235.187 260.281 234.958 260.937 234.399C262.966 234.905 264.742 233.385 263.473 230.09C263.414 228.779 263.162 228.085 261.698 227.05C260.86 224.397 259.046 223.892 254.088 224.261L253.327 223.653L253.394 222.832C261.248 216.963 262.423 207.355 260.937 189.287C261.444 176.617 261.951 139.869 260.937 137.587C259.185 135.099 258.204 133.045 257.36 131.16L257.057 130.478C255.721 127.47 254.544 124.818 250.79 121.367C249.595 116.595 248.975 115.377 247.925 113.316C247.414 112.314 246.801 111.112 245.971 109.204C246.791 103.668 245.953 101.782 244.528 98.578C244.191 97.8216 243.823 96.992 243.434 96.0238C243.379 91.4383 243.46 88.8351 242.166 84.6193C240.696 80.3402 239.717 77.8801 237.093 73.2148C234.556 69.1614 230.498 71.4423 228.976 75.4957L228.746 76.3283C227.458 80.997 226.616 84.0506 225.425 89.688C224.156 90.4483 223.142 91.9689 222.634 92.9826C220.351 92.9826 217.815 93.2361 216.293 93.9964C211.798 87.7071 209.474 85.2391 205.385 81.0713C202.088 79.0438 201.073 79.8041 202.088 83.6056C202.456 85.5346 203.156 87.6299 203.828 89.6385L203.834 89.6578C205.013 93.1836 206.101 96.4386 205.132 98.0513C204.078 99.42 203.067 100.555 202.12 101.621C200.786 103.12 199.575 104.481 198.537 106.161C197.512 107.818 197.516 110.296 198.065 113.004C197.155 115.46 197.318 117.659 198.537 119.593C197.522 121.114 197.522 121.621 198.537 123.902C196.254 126.943 197.776 132.772 202.849 132.772C205.893 137.08 209.698 137.587 213.249 135.559C214.414 135.872 215.096 136.345 216.293 137.587C216.011 138.658 215.805 139.896 215.621 141.231C215.518 141.974 215.423 142.747 215.326 143.539C214.81 147.723 214.232 152.414 212.234 155.834C206.146 165.971 200.059 182.952 200.059 182.952Z" fill="#111E2D"/>
<path fill-rule="evenodd" clip-rule="evenodd" d="M290.639 199.56C291.324 200.841 292.05 202.2 292.757 203.71C294.2 207.263 294.897 210.336 295.97 217.337C295.18 222.894 294.537 225.513 292.757 228.827C286.865 233.102 284.99 237.377 289.007 240.583L291.953 242.453H296.506L302.666 241.385C302.13 247.797 304.273 251.805 309.629 257.683C330.527 271.843 348.47 251.804 355.425 236.308C359.62 226.962 357.249 222.387 354.711 217.49C354.412 216.912 354.111 216.329 353.818 215.734C357.038 207.984 359.448 194.624 356.228 183.136C356.228 178.86 356.866 175.046 356.228 171.647C354.628 163.363 354.092 162.294 352.211 154.814C347.102 139.081 344.451 135.307 328.644 125.423C327.562 124.121 327.026 123.327 326.501 121.682C325.999 115.784 325.175 114.562 324.43 113.458C323.995 112.812 323.587 112.207 323.287 110.727C323.017 109.177 323.009 108.559 323.287 108.055C328.65 110.191 334.542 105.916 334.274 102.977L334.542 102.442C335.613 101.908 336.41 100.839 336.41 98.9704C336.72 98.3557 337.08 97.8954 337.408 97.4753C338.224 96.4347 338.843 95.6425 338.017 93.3594C337.674 92.4127 337.052 91.19 336.349 89.806C334.87 86.8904 333.029 83.2613 332.661 79.9997C329.721 76.5246 322.758 71.9823 320.609 71.4479C320.609 70.9135 320.883 69.0432 320.883 67.9744C320.739 67.1248 320.295 66.8002 319.712 66.8821C319.195 66.9547 318.567 67.3466 317.937 67.9744C316.598 69.5776 315.795 70.1119 314.45 70.1135C313.286 69.5603 312.223 69.3636 311.248 69.183C308.784 68.7264 306.884 68.3747 305.344 62.6321L304.547 58.8898L303.201 55.1507C300.797 50.6068 296.512 51.4084 294.364 55.1507C292.746 59.5082 292.179 63.178 291.685 72.2511C291.15 73.9529 290.493 75.2345 289.886 76.4181C288.681 78.7634 287.675 80.7235 288.204 84.8092C287.252 88.7263 285.794 91.3846 284.296 94.1145C282.015 98.2743 279.644 102.599 278.83 111.796C278.435 113.774 278.017 115.417 277.642 116.888C276.242 122.369 275.458 125.449 278.83 134.507C279.542 146.225 281.555 152.28 284.082 159.885C285.358 163.725 286.767 167.96 288.204 173.517C289.007 176.932 289.007 178.585 289.007 181.533C285.53 189.99 287.698 194.048 290.639 199.56ZM328.114 238.444C326.507 240.047 323.026 239.78 321.955 237.375C321.406 239.789 321.153 242.185 321.955 243.253C326.24 243.788 330.792 241.116 332.935 237.375L332.131 237.108C330.617 238.118 329.759 238.571 328.114 238.444Z" fill="#111E2D"/>
<path d="M21.097 224.11L22.5708 217.261L126.888 158.119L132.261 158.421L182.789 243.827L79.4258 321.811L21.097 224.11Z" fill="#FAFAFA"/>
<path fill-rule="evenodd" clip-rule="evenodd" d="M127.59 167.909L30.4473 222.897L81.8413 308.846L171.215 241.53L127.59 167.909ZM182.887 243.837L79.2953 321.863L20.8659 224.148L22.3442 217.297L126.888 158.119L132.272 158.42L182.887 243.837Z" fill="#111E2D"/>
<path fill-rule="evenodd" clip-rule="evenodd" d="M269.001 270.736L269.605 276.244L177.968 363.661L81.0005 327.25L79.2949 321.863L182.887 243.838L269.001 270.736ZM183.103 251.02L188.318 252.628L184.05 255.943L178.833 254.229L183.103 251.02ZM177.419 255.291L182.669 257.017L179.314 259.622L173.985 257.871L177.419 255.291ZM180.976 260.169L184.331 257.563L189.202 259.164L185.88 261.78L180.976 260.169ZM172.571 258.934L177.931 260.696L173.691 263.989L168.233 262.195L172.571 258.934ZM175.354 264.536L179.595 261.242L184.511 262.858L180.312 266.165L175.354 264.536ZM166.816 263.258L172.309 265.063L167.372 268.898L161.805 267.024L166.816 263.258ZM169.024 269.453L173.973 265.609L178.943 267.243L174.007 271.131L169.024 269.453ZM160.397 268.082L165.996 269.966L160.865 273.952L155.19 271.996L160.397 268.082ZM162.504 274.517L167.646 270.522L172.645 272.204L167.515 276.243L162.504 274.517ZM153.788 273.049L159.496 275.015L154.223 279.111L148.409 277.091L153.788 273.049ZM155.857 279.679L161.135 275.58L166.16 277.311L160.919 281.438L155.857 279.679ZM147.01 278.142L152.856 280.173L147.429 284.389L141.439 282.328L147.01 278.142ZM149.068 284.953L154.49 280.741L159.566 282.504L154.209 286.722L149.068 284.953ZM140.039 283.381L146.059 285.453L140.981 289.397L134.86 287.272L140.039 283.381ZM142.615 289.965L147.698 286.017L152.852 287.791L147.805 291.766L142.615 289.965ZM133.461 288.323L139.613 290.459L133.436 295.258L127.111 293.095L133.461 288.323ZM135.077 295.82L141.248 291.026L146.452 292.832L140.362 297.627L135.077 295.82ZM125.709 294.149L132.064 296.323L125.69 301.274L119.122 299.099L125.709 294.149ZM127.349 301.823L133.707 296.885L139.004 298.697L132.759 303.615L127.349 301.823ZM117.71 300.161L124.309 302.346L118.852 306.585L112.124 304.358L117.71 300.161ZM120.51 307.135L125.967 302.895L131.392 304.691L125.988 308.948L120.51 307.135ZM110.712 305.419L117.471 307.658L111.378 312.39L104.508 310.08L110.712 305.419ZM113.03 312.944L119.129 308.207L124.621 310.025L118.556 314.801L113.03 312.944ZM103.1 311.139L110.003 313.459L103.539 318.479L96.422 316.157L103.1 311.139ZM111.654 314.013L117.192 315.874L110.855 320.866L105.205 319.023L111.654 314.013ZM112.514 321.407L118.838 316.428L124.228 318.239L117.911 323.167L112.514 321.407ZM125.877 318.793L119.574 323.71L126.241 325.885L132.299 320.952L125.877 318.793ZM127.249 317.723L133.632 319.868L139.62 314.991L133.392 312.93L127.249 317.723ZM133.927 321.499L127.881 326.421L134.935 328.722L140.752 323.792L133.927 321.499ZM135.258 320.414L142.045 322.696L147.901 317.733L141.255 315.532L135.258 320.414ZM149.2 316.633L154.33 312.286L147.869 310.146L142.59 314.445L149.2 316.633ZM146.235 309.606L140.955 313.904L134.769 311.856L140.211 307.61L146.235 309.606ZM133.113 311.307L138.554 307.062L133.045 305.238L127.639 309.495L133.113 311.307ZM120.2 315.354L126.272 310.572L131.736 312.381L125.6 317.168L120.2 315.354ZM134.412 304.162L139.929 305.989L146.144 301.139L140.641 299.256L134.412 304.162ZM147.513 300.072L141.999 298.186L148.08 293.397L153.608 295.316L147.513 300.072ZM149.435 292.331L154.971 294.253L160.07 290.275L154.486 288.353L149.435 292.331ZM161.436 289.209L155.842 287.284L161.194 283.07L166.805 285.019L161.436 289.209ZM162.549 282.003L168.168 283.956L173.462 279.826L167.791 277.874L162.549 282.003ZM174.827 278.762L169.148 276.806L174.289 272.757L180.041 274.693L174.827 278.762ZM175.651 271.684L181.413 273.623L186.434 269.705L180.6 267.787L175.651 271.684ZM187.813 268.63L181.969 266.709L186.167 263.403L192.039 265.332L187.813 268.63ZM187.536 262.324L193.418 264.257L196.761 261.649L190.858 259.708L187.536 262.324ZM198.138 260.573L192.227 258.63L196.603 255.184L202.654 257.05L198.138 260.573ZM198.421 262.194L195.078 264.803L199.482 266.251L202.727 263.609L198.421 262.194ZM199.8 261.119L204.063 262.521L208.549 258.868L204.346 257.572L199.8 261.119ZM204.366 264.147L201.121 266.789L206.088 268.422L209.242 265.75L204.366 264.147ZM205.701 263.059L210.54 264.649L215.01 260.861L210.217 259.382L205.701 263.059ZM204.789 269.523L199.783 267.877L195.683 271.217L200.805 272.9L204.789 269.523ZM194.346 272.305L199.505 274.001L194.682 278.089L189.418 276.317L194.346 272.305ZM193.387 279.185L188.087 277.401L182.969 281.568L188.377 283.431L193.387 279.185ZM181.645 282.646L187.09 284.523L182.062 288.783L176.486 286.846L181.645 282.646ZM180.776 289.873L175.163 287.924L169.976 292.148L175.749 294.135L180.776 289.873ZM168.65 293.227L174.459 295.226L169.612 299.335L163.677 297.275L168.65 293.227ZM168.325 300.425L162.355 298.352L156.478 303.138L162.637 305.245L168.325 300.425ZM155.151 304.219L161.348 306.338L155.627 311.186L149.204 309.059L155.151 304.219ZM147.569 308.518L153.531 303.665L147.785 301.7L141.586 306.537L147.569 308.518ZM154.858 302.585L149.154 300.633L155.242 295.883L160.743 297.793L154.858 302.585ZM156.605 294.82L162.067 296.716L167.033 292.671L161.707 290.838L156.605 294.82ZM168.358 291.592L163.074 289.772L168.439 285.587L173.552 287.363L168.358 291.592ZM169.802 284.523L174.876 286.286L180.029 282.089L175.098 280.391L169.802 284.523ZM181.353 281.011L176.462 279.326L181.689 275.248L186.459 276.854L181.353 281.011ZM183.061 274.178L187.79 275.77L192.707 271.767L188.096 270.251L183.061 274.178ZM194.045 270.678L189.473 269.176L193.699 265.878L198.145 267.339L194.045 270.678ZM190.571 258.086L185.714 256.49L190.012 253.151L194.917 254.664L190.571 258.086ZM175.766 308.284L202.08 284.949L225.636 292.754L199.637 316.934L175.766 308.284ZM177.603 307.297L202.273 285.419L224.358 292.737L199.983 315.407L177.603 307.297Z" fill="#111E2D"/>
</svg>
